<svg width="136" height="137" viewBox="0 0 136 137" fill="none" xmlns="http://www.w3.org/2000/svg">
<g opacity="0.58">
<path opacity="0.58" d="M67.75 136.45C67.08 136.45 66.42 136.45 65.75 136.45C63.88 136.39 62.04 136.26 60.27 136.08C58.96 135.91 57.8 135.73 56.67 135.54H56.54H56.45C52.0114 134.745 47.6584 133.53 43.45 131.91C39.0005 130.061 34.7462 127.773 30.75 125.08L30.63 125.01L30.44 124.88L30.33 124.8L29.14 123.97L28.7 123.67L28.56 123.57L28.46 123.49L28.25 123.33L28.14 123.25L27.98 123.13L27.72 122.92L26.84 122.24C23.9134 119.891 21.1658 117.327 18.62 114.57L18.4 114.34L18.29 114.21C18.2051 114.128 18.1249 114.041 18.05 113.95L17.97 113.86L17.89 113.78L17.59 113.43V113.38C17.05 112.76 16.51 112.14 15.99 111.5C14.4046 109.494 12.9226 107.408 11.55 105.25L11.47 105.12C11.3975 105.017 11.3307 104.91 11.27 104.8L10.93 104.25C9.32301 101.627 7.88348 98.905 6.61997 96.1002L6.52997 95.9102L6.45997 95.7202C6.45997 95.6202 6.36997 95.5302 6.32997 95.4302L6.24997 95.2502L5.85997 94.2502C3.95303 89.4077 2.55224 84.381 1.67997 79.2502L1.50997 78.0602C0.880751 73.2573 0.713319 68.4051 1.00997 63.5702C1.00997 63.4002 1.00997 63.2002 1.00997 63.0002C1.00997 62.8902 1.00997 62.7902 1.00997 62.6902V62.4902C1.0054 62.4169 1.0054 62.3435 1.00997 62.2702C1.00997 62.1402 1.00997 62.0002 1.00997 61.8702C1.00569 61.8036 1.00569 61.7368 1.00997 61.6702L1.06997 61.0102C1.07491 60.9403 1.07491 60.8701 1.06997 60.8002C1.77895 54.9099 3.17858 49.1234 5.23997 43.5602C7.31373 38.348 9.96351 33.3838 13.14 28.7602C16.6599 23.8817 20.7562 19.4462 25.34 15.5502C29.9908 11.7591 35.0929 8.55811 40.53 6.0202C45.9687 3.64111 51.6776 1.93514 57.53 0.940193H57.69L57.82 1.64019L57.73 0.940193H57.75C61.1782 0.449737 64.6368 0.202455 68.1 0.200195C70.6252 0.203803 73.1485 0.33731 75.66 0.600193C81.43 1.32519 87.0911 2.74551 92.52 4.83019C97.7482 6.97228 102.708 9.71754 107.3 13.0102C116.934 20.0548 124.548 29.507 129.38 40.4202C131.784 46.0659 133.493 51.9825 134.47 58.0402C135.286 63.976 135.403 69.987 134.82 75.9502C134.104 81.7553 132.725 87.4592 130.71 92.9502C128.559 98.4116 125.766 103.598 122.39 108.4C118.949 113.084 114.975 117.353 110.55 121.12C105.924 124.871 100.856 128.041 95.46 130.56C90.1136 132.912 84.5031 134.611 78.75 135.62H78.62H78.36C74.8483 136.155 71.3021 136.433 67.75 136.45ZM57.24 132.45C58.32 132.64 59.42 132.8 60.62 132.96C62.28 133.13 64.05 133.25 65.85 133.31C69.8629 133.415 73.8774 133.177 77.85 132.6H77.98C83.5405 131.646 88.9639 130.018 94.13 127.75C99.2745 125.346 104.107 122.324 108.52 118.75C112.743 115.153 116.535 111.08 119.82 106.61C123.035 102.033 125.696 97.0924 127.75 91.8902C129.708 86.633 131.051 81.1665 131.75 75.6002C132.311 69.9101 132.197 64.1735 131.41 58.5102C130.482 52.734 128.853 47.0924 126.56 41.7102C124.188 36.4998 121.196 31.5944 117.65 27.1002C114.072 22.7803 109.997 18.8969 105.51 15.5302C101.129 12.3945 96.3967 9.78016 91.41 7.74019C86.2296 5.76753 80.8309 4.42457 75.33 3.74019C72.9349 3.48817 70.5283 3.36133 68.12 3.3602C64.8144 3.36403 61.5131 3.59793 58.24 4.0602H58.13H57.99C52.4003 5.01361 46.947 6.64219 41.75 8.91019C36.5884 11.3058 31.7419 14.3286 27.32 17.9102C22.9684 21.6385 19.0835 25.8793 15.75 30.5402C12.7188 34.9515 10.1898 39.6875 8.20997 44.6602C6.2399 49.9551 4.8974 55.4627 4.20997 61.0702C4.20997 61.1402 4.20997 61.2402 4.20997 61.3502C4.20997 61.4602 4.20997 61.4502 4.20997 61.5202C4.2149 61.5901 4.2149 61.6603 4.20997 61.7302V62.1002V62.5002V62.7402V62.8802V63.2002C4.20997 63.3702 4.20997 63.5302 4.20997 63.7002C3.92263 68.3279 4.08002 72.9725 4.67997 77.5702L4.73997 78.0102C4.73512 78.1001 4.73512 78.1903 4.73997 78.2802L4.78997 78.6302C5.56847 83.2082 6.78059 87.7017 8.40997 92.0502H8.74997V93.3202L8.94997 93.5302V93.8802C8.95562 93.9267 8.95562 93.9737 8.94997 94.0202L9.00996 94.1402L9.19997 94.5902L9.32997 94.9002C10.553 97.5907 11.9424 100.202 13.49 102.72L13.76 103.17C13.7862 103.216 13.8163 103.26 13.85 103.3L14.04 103.6C15.27 105.55 16.7 107.6 18.24 109.53C18.72 110.11 19.24 110.69 19.73 111.28L19.82 111.38L20.08 111.67L20.28 111.88C20.3111 111.928 20.3481 111.972 20.39 112.01C20.4785 112.099 20.562 112.192 20.64 112.29L20.75 112.4C23.229 115.047 25.9032 117.504 28.75 119.75L29.93 120.67L30.07 120.78L30.33 120.97L30.9 121.38L32 122.15L32.22 122.29L32.3 122.35L32.42 122.42C36.2585 124.976 40.342 127.143 44.61 128.89C48.6244 130.416 52.7724 131.564 57 132.32H57.16L57.24 132.45Z" fill="#64A1E1"/>
<path opacity="0.58" d="M57.9199 2.47021H58.2199C58.1099 2.47021 57.9999 2.47021 57.8899 2.53021L57.9199 2.47021Z" fill="#64A1E1"/>
<path opacity="0.58" d="M128.93 93.3202L129.25 92.4902C129.13 92.7702 129.03 93.0402 128.93 93.3202Z" fill="#64A1E1"/>
<path opacity="0.58" d="M68.1801 136.45C64.6294 136.453 61.0832 136.195 57.5701 135.68H57.3301L57.1901 135.62C51.4538 134.625 45.8573 132.946 40.5201 130.62C35.1225 128.098 30.0519 124.928 25.4201 121.18C20.9934 117.414 17.0169 113.149 13.5701 108.47C10.1974 103.67 7.40466 98.487 5.25012 93.0302C3.22523 87.5421 1.84595 81.8371 1.14012 76.0302C0.544701 70.0646 0.655469 64.0497 1.47012 58.1102C2.44072 52.0424 4.14661 46.1155 6.55012 40.4602C9.03278 34.9885 12.1689 29.8377 15.8901 25.1202C19.6367 20.5856 23.9101 16.5136 28.6201 12.9902C33.2065 9.69508 38.1637 6.94964 43.3901 4.81016C48.821 2.71683 54.4857 1.28975 60.2601 0.560158C62.7847 0.293602 65.3215 0.160082 67.8601 0.160156C71.3233 0.162416 74.7819 0.409701 78.2101 0.900158H78.4301C84.2824 1.8954 89.9913 3.60135 95.4301 5.98016C100.847 8.49898 105.932 11.6763 110.57 15.4402C115.152 19.3395 119.242 23.7822 122.75 28.6702C125.932 33.2937 128.589 38.2577 130.67 43.4702C132.727 49.0279 134.126 54.8072 134.84 60.6902C134.84 60.8102 134.84 60.8802 134.84 60.9502L134.9 61.6102C134.904 61.6768 134.904 61.7435 134.9 61.8102V62.2102C134.904 62.2834 134.904 62.3569 134.9 62.4302V62.6302V62.9402V63.5402C135.195 68.3548 135.031 73.1866 134.41 77.9702L134.23 79.2102C133.361 84.3406 131.964 89.3674 130.06 94.2102L129.66 95.2102L129.56 95.4202V95.4802L129.39 95.8602C129.363 95.9395 129.33 96.0165 129.29 96.0902C128.039 98.8626 126.616 101.554 125.03 104.15L124.69 104.69L124.48 105.02L124.43 105.11C123.057 107.271 121.576 109.36 119.99 111.37C119.45 112.04 118.91 112.66 118.36 113.28V113.33L118.05 113.68L117.91 113.84L117.66 114.11C117.618 114.149 117.581 114.192 117.55 114.24L117.3 114.51C114.759 117.249 112.021 119.799 109.11 122.14L108.23 122.82L107.99 123L107.82 123.13L107.69 123.23L107.51 123.37L107.41 123.45C107.351 123.499 107.287 123.543 107.22 123.58L106.81 123.87L105.67 124.67L105.5 124.78L105.34 124.89L105.19 124.98C101.19 127.641 96.936 129.899 92.4901 131.72C88.2814 133.341 83.9286 134.56 79.4901 135.36L79.2101 135.42C78.0801 135.61 76.9201 135.79 75.6601 135.96C73.8501 136.14 72.0001 136.27 70.1401 136.33C69.5101 136.45 68.8401 136.45 68.1801 136.45ZM58.0301 132.56C62.0226 133.14 66.0572 133.377 70.0901 133.27C71.8701 133.21 73.6501 133.09 75.3501 132.92C76.4701 132.77 77.5501 132.6 78.6001 132.42L78.9501 132.35C83.1985 131.581 87.3664 130.419 91.4001 128.88C95.6551 127.13 99.728 124.966 103.56 122.42L103.64 122.36L103.75 122.32L104.03 122.14L105.08 121.41L105.63 121.01L105.9 120.81L106.03 120.71L107.26 119.71C110.051 117.468 112.672 115.021 115.1 112.39L115.25 112.24C115.328 112.142 115.412 112.049 115.5 111.96L115.62 111.82L115.85 111.57L116.06 111.33L116.17 111.21C116.67 110.63 117.17 110.05 117.66 109.45C119.164 107.544 120.569 105.561 121.87 103.51L122.04 103.26C122.057 103.22 122.081 103.183 122.11 103.15L122.4 102.67C123.95 100.155 125.336 97.5431 126.55 94.8502L126.68 94.5502L126.87 94.1102L126.94 93.9702C126.94 93.9702 126.94 93.8902 126.94 93.8502V93.5002L127.15 93.2902V92.0502H127.65C129.282 87.7126 130.494 83.2288 131.27 78.6602L131.33 78.2802C131.325 78.1902 131.325 78.1001 131.33 78.0102L131.39 77.5402C131.985 72.9589 132.143 68.3313 131.86 63.7202C131.86 63.5302 131.86 63.3702 131.86 63.2002V62.8802V62.7102V62.5002C131.87 62.367 131.87 62.2333 131.86 62.1002V61.7302C131.865 61.6602 131.865 61.5901 131.86 61.5202C131.86 61.4502 131.86 61.4002 131.86 61.3502C131.86 61.3002 131.86 61.1302 131.86 61.0202C131.176 55.4152 129.834 49.9105 127.86 44.6202C125.878 39.6499 123.345 34.9171 120.31 30.5102C116.92 25.8515 112.974 21.6237 108.56 17.9202C104.137 14.3359 99.2863 11.3129 94.1201 8.92015C88.9455 6.65708 83.516 5.02858 77.9501 4.07016H77.7501C74.4778 3.59964 71.1761 3.36238 67.8701 3.36016C65.4519 3.36209 63.0353 3.48892 60.6301 3.74015C55.1265 4.42716 49.7248 5.77003 44.5401 7.74015C39.5579 9.78715 34.8297 12.4046 30.4501 15.5402C25.9548 18.9115 21.8733 22.8018 18.2901 27.1302C14.7458 31.6275 11.7575 36.5364 9.39012 41.7502C7.09846 47.1321 5.47308 52.7739 4.55012 58.5502C3.76863 64.2142 3.66121 69.9509 4.23012 75.6402C4.90867 81.1796 6.22404 86.6222 8.15012 91.8602C10.2069 97.0578 12.8685 101.995 16.0801 106.57C19.3709 111.035 23.166 115.105 27.3901 118.7C31.8012 122.277 36.6339 125.299 41.7801 127.7C46.9398 129.964 52.3565 131.589 57.9101 132.54L58.0301 132.56Z" fill="#64A1E1"/>
</g>
<path d="M44.75 114.75H43.6501C41.0567 114.75 39.7634 113.48 39.77 110.94V108.69C39.77 106.16 41.0601 104.9 43.6501 104.89H44.75C47.3 104.89 48.5801 106.16 48.5801 108.69V110.94C48.6067 113.473 47.33 114.743 44.75 114.75ZM45.99 110.75V108.83C46.022 108.477 45.9301 108.123 45.7301 107.83C45.5801 107.697 45.4034 107.598 45.2119 107.54C45.0205 107.481 44.8186 107.464 44.6201 107.49H43.75C43.5515 107.464 43.3496 107.481 43.1581 107.54C42.9667 107.598 42.79 107.697 42.64 107.83C42.44 108.123 42.3481 108.477 42.38 108.83V110.75C42.3464 111.104 42.4385 111.458 42.64 111.75C42.7891 111.885 42.9654 111.986 43.157 112.046C43.3485 112.106 43.5508 112.125 43.75 112.1H44.6201C44.8193 112.125 45.0216 112.106 45.2131 112.046C45.4047 111.986 45.581 111.885 45.7301 111.75C45.9316 111.458 46.0237 111.104 45.99 110.75Z" fill="white"/>
<path d="M56.24 114.73C55.7823 114.754 55.3312 114.612 54.97 114.33C54.5451 113.916 54.2409 113.394 54.09 112.82L52.75 108.69C52.75 108.57 52.67 108.51 52.6 108.53C52.53 108.55 52.49 108.6 52.49 108.71V114.71H49.99V106.71C49.9597 106.444 49.9859 106.175 50.0669 105.92C50.1479 105.665 50.2819 105.43 50.46 105.23C50.8784 104.942 51.3847 104.811 51.89 104.86C52.3981 104.828 52.9001 104.985 53.3 105.3C53.7205 105.716 54.021 106.238 54.17 106.81L55.53 110.74C55.53 110.87 55.61 110.92 55.67 110.91C55.73 110.9 55.74 110.86 55.74 110.75V104.92H58.24V112.79C58.23 114.1 57.58 114.74 56.24 114.73Z" fill="white"/>
<path d="M67.44 114.64H62.8399C62.389 114.687 61.9331 114.641 61.5011 114.503C61.0691 114.365 60.6703 114.139 60.33 113.84C60.0743 113.536 59.8816 113.184 59.7632 112.804C59.6447 112.425 59.6028 112.026 59.64 111.63V108.18C59.5635 107.34 59.7867 106.501 60.2699 105.81C60.611 105.469 61.0246 105.209 61.4799 105.05C61.9353 104.89 62.4206 104.836 62.9 104.89H67.42V107.48H63.16C62.9025 107.443 62.6406 107.507 62.43 107.66C62.3478 107.763 62.287 107.882 62.251 108.009C62.2149 108.136 62.2044 108.269 62.22 108.4V108.61H66.93V110.78H62.22V111C62.1735 111.314 62.2447 111.635 62.42 111.9C62.5261 111.98 62.6471 112.038 62.7758 112.07C62.9046 112.103 63.0386 112.11 63.17 112.09H67.44V114.63V114.64Z" fill="white"/>
<path d="M81.2999 114.63H78.7499V112.63C78.7586 112.413 78.7211 112.196 78.6401 111.995C78.5591 111.793 78.4364 111.611 78.2799 111.46C78.1011 111.3 77.8924 111.177 77.6658 111.098C77.4393 111.019 77.1994 110.986 76.9599 111H75.2499V114.67H72.6599V104.92H75.2499V108.46H76.7499C77.8999 108.46 78.4999 107.89 78.5399 106.89V104.89H81.1299V107.03C81.1802 107.557 81.0834 108.087 80.8504 108.562C80.6174 109.037 80.2572 109.438 79.8099 109.72C80.2856 109.981 80.6796 110.369 80.9479 110.84C81.2163 111.311 81.3485 111.848 81.3299 112.39V114.6L81.2999 114.63Z" fill="white"/>
<path d="M88.69 114.64V112.64H85.3V114.64H82.75V108.82C82.6589 107.815 82.9244 106.81 83.5 105.98C83.8978 105.606 84.3721 105.323 84.8901 105.15C85.408 104.978 85.9573 104.92 86.5 104.98H87.5C88.0426 104.92 88.5917 104.979 89.1096 105.151C89.6275 105.324 90.1018 105.607 90.5 105.98C91.0709 106.812 91.336 107.815 91.25 108.82V114.64H88.69ZM88.69 110.31V108.82C88.7327 108.444 88.6328 108.066 88.41 107.76C88.1504 107.553 87.8201 107.457 87.49 107.49H86.49C86.1598 107.457 85.8296 107.553 85.57 107.76C85.3471 108.066 85.2472 108.444 85.29 108.82V110.32L88.69 110.31Z" fill="white"/>
<path d="M95.2201 112.12H93.2901L92.8401 106.96V104.25H95.6701V106.96L95.2201 112.12ZM95.6301 115.12H92.8901V112.71H95.6301V115.12Z" fill="white"/>
<path d="M38.6799 102.49H101.39L97.27 117.81H34.5601L38.6799 102.49Z" stroke="#F6FAFF" stroke-miterlimit="10"/>
<path d="M42.72 32.6401H35.53V64.0501H42.72V32.6401Z" fill="white"/>
<path d="M110.42 42.9302H102.52V51.2102H110.42V42.9302Z" fill="#FAEB11"/>
<path d="M101.39 42.98H26.21V51.16H101.39V42.98Z" fill="white"/>
<path d="M58.6399 20.2402C59.2899 21.2402 73.2399 32.3802 90.5099 20.2402L95.7099 27.4102C93.4899 31.0202 70.1599 40.9702 55.3799 27.5002L58.6399 20.2402Z" fill="white"/>
<path d="M98.1601 67.63C94.7768 66.1688 91.8679 63.7932 89.7601 60.77L82.1201 65.4C85.3159 68.968 89.4882 71.52 94.1201 72.74C94.1201 72.74 106.43 73.5 108.3 76.74C108.27 76.69 106.09 70.49 98.1601 67.63Z" fill="#64A1E1"/>
<path d="M85.7501 43.6198L77.2301 43.5098C77.2301 43.5098 74.4501 56.4498 81.2901 64.5098L89.0801 59.9298C86.9801 56.3198 85.3801 50.9998 85.7501 43.6198Z" fill="white"/>
<path d="M26.3701 29.3201C26.8801 30.1001 41.2901 35.4601 45.1901 20.5801L51.5301 24.7801C51.9901 26.7801 44.2901 44.1101 26.3701 37.3101V29.3201Z" fill="white"/>
<path d="M25.8701 61.3199C29.5101 62.1999 43.8701 67.5499 47.8101 52.6699L54.1501 56.8699C54.6101 58.8699 46.9101 76.2099 25.8801 69.3099L25.8701 61.3199Z" fill="white"/>
<path d="M35.27 88.9898V97.4998C40.0122 97.6564 44.7311 96.7725 49.0951 94.9101C53.459 93.0477 57.3621 90.2521 60.53 86.7198L52.75 81.5898C52.75 81.5898 47.18 88.9898 35.27 88.9898Z" fill="#64A1E1"/>
<path d="M60.58 46.8699V64.7898C60.1629 70.8065 57.6671 76.4909 53.52 80.8699L61.24 85.8699C66.3421 79.9227 69.1292 72.3356 69.09 64.4998L69.15 46.8398L60.58 46.8699Z" fill="white"/>
<path d="M95.42 68.5298C92.5671 68.5278 89.7778 69.3721 87.4049 70.9558C85.032 72.5396 83.1822 74.7916 82.0896 77.4269C80.9969 80.0622 80.7105 82.9624 81.2666 85.7605C81.8227 88.5587 83.1962 91.129 85.2135 93.1463C87.2308 95.1635 89.8011 96.5371 92.5993 97.0932C95.3974 97.6493 98.2976 97.3629 100.933 96.2702C103.568 95.1776 105.82 93.3278 107.404 90.9549C108.988 88.582 109.832 85.7926 109.83 82.9398C109.827 79.1188 108.308 75.4551 105.606 72.7533C102.905 70.0515 99.241 68.5324 95.42 68.5298ZM95.42 89.4298C94.1815 89.4318 92.9702 89.0663 91.9394 88.3797C90.9086 87.693 90.1047 86.716 89.6294 85.5723C89.1541 84.4286 89.0287 83.1696 89.2691 81.9547C89.5095 80.7397 90.1049 79.6233 90.98 78.7469C91.8551 77.8704 92.9705 77.2732 94.1851 77.0308C95.3997 76.7885 96.6588 76.9118 97.8033 77.3854C98.9477 77.8589 99.926 78.6612 100.614 79.6909C101.303 80.7206 101.67 81.9313 101.67 83.1698C101.67 84.8283 101.012 86.419 99.84 87.5927C98.6682 88.7664 97.0785 89.4271 95.42 89.4298Z" fill="white"/>
<path d="M33.8401 89H25.9099V97.55H33.8401V89Z" fill="#FAEB11"/>
<path d="M50.4599 78.4498L43.3899 73.7598C43.3899 73.7598 49.8499 68.7598 56.8299 68.7598H78.1299V87.3198C78.1299 87.3198 78.2099 92.0898 76.0299 94.6898C76.0299 94.6898 73.7999 97.2598 70.8799 97.3098L62.3899 97.3698V89.1198H65.6099C65.6099 89.1198 69.7599 89.4998 70.0099 85.9098L70.2599 77.1598H59.8999C59.8999 77.1598 52.4699 76.6398 50.4599 78.4498Z" fill="white"/>
</svg>
