<svg xmlns="http://www.w3.org/2000/svg" viewBox="0 0 162.7 154.59"><defs><style>.cls-1{fill:#fff;}</style></defs><g id="圖層_2" data-name="圖層 2"><g id="圖層_1-2" data-name="圖層 1"><path class="cls-1" d="M50,148.41l-1.16.89-47.27-62A7.62,7.62,0,0,1,3,76.67l5.21-4,.89,1.16-5.21,4a6.15,6.15,0,0,0-1.16,8.63Z"/><path class="cls-1" d="M107.74,115.59a7.62,7.62,0,0,1-2.72,4.07L61.26,153A7.61,7.61,0,0,1,50.6,151.6l-1.74-2.27,0,0h0l1.16-.89,0,0a6.16,6.16,0,0,0,8.61,1.12l43.74-33.39a6.14,6.14,0,0,0,1.16-8.62l1.16-.89a7.48,7.48,0,0,1,1.31,2.67l.46-.35A7.63,7.63,0,0,1,107.74,115.59ZM53.25,152.11a6.14,6.14,0,0,0,7.12-.23l43.76-33.38a6.18,6.18,0,0,0,2.1-6.85c0,.22,0,.44-.06.65a7.51,7.51,0,0,1-2.92,5L59.5,150.73a7.57,7.57,0,0,1-5.63,1.49A6.17,6.17,0,0,1,53.25,152.11Z"/><path class="cls-1" d="M52.46,140.37l-1.16.88L3.71,78.9,4,78.46s1.43-2.15,4.07-5.62c2.2-2.92,5.87-7.55,10.8-13.06A99.59,99.59,0,0,1,40.32,42c8.2-4.89,12.15-3.39,12.32-3.32l.18.07,2,2.66-1.15.89L51.93,40c-.77-.18-4.29-.66-10.86,3.26A98.08,98.08,0,0,0,20,60.76c-4.89,5.46-8.53,10.06-10.72,13C7.3,76.25,6,78.06,5.5,78.84l2.66,3.47Z"/><path class="cls-1" d="M159.38,65l-1.16.88-47.28-62a6.16,6.16,0,0,0-8.62-1.15l-5.19,4-.88-1.16,5.19-3.95A7.6,7.6,0,0,1,112.1,3Z"/><polygon class="cls-1" points="100.26 100.89 99 101.62 100.25 100.88 100.26 100.89"/><path class="cls-1" d="M162.43,73.85a7.53,7.53,0,0,1-2.72,4.07L116,111.31a7.64,7.64,0,0,1-10.67-1.44l-1.77-2.31,1.16-.89h0a6.16,6.16,0,0,0,8.63,1.17l43.74-33.39a6.08,6.08,0,0,0,2.22-3.29,6.15,6.15,0,0,0-1-5.31l0,0,1.16-.88,0,0,0,0-.55.45.57-.43,1.74,2.29A7.56,7.56,0,0,1,162.43,73.85Zm-54.51,36.52a6.18,6.18,0,0,0,7.16-.23l43.74-33.38a6.28,6.28,0,0,0,2.11-6.83,7.7,7.7,0,0,1-3,5.68L114.19,109A7.62,7.62,0,0,1,107.92,110.37Z"/><path class="cls-1" d="M151,65.21l-1.15.88-47-61.54c-.89.31-3,1-5.9,2.22-3.41,1.37-8.84,3.68-15.36,6.94A98.3,98.3,0,0,0,59.12,29.45c-5.52,5.29-6,8.81-6,9.61l47.19,61.88-1.3.65h0l-47.31-62,0-.2c0-.18-.43-4.39,6.46-11a99.46,99.46,0,0,1,22.83-16c6.57-3.29,12-5.62,15.48-7,4-1.62,6.45-2.41,6.48-2.42l.49-.16,3.27,4.29Z"/><path class="cls-1" d="M104.37,106.44l-.54,1.35s-3.56-1.23-11,3.23c-4.61,2.75-13.78,9.6-21.69,16.88a131.61,131.61,0,0,0-15.67,17.24l-.58.79L51,140.84l.29-.43a180.49,180.49,0,0,1,14.87-18.67c7.12-7.55,16.17-14.67,21.45-17.82,8-4.74,11.88-3.49,12.3-3.33L99.45,102c-.1,0-3.63-1.26-11.11,3.2a114.45,114.45,0,0,0-21.13,17.55,183,183,0,0,0-14.43,18.07l2.06,2.71a137.36,137.36,0,0,1,15.28-16.67c8-7.35,17.26-14.28,21.93-17.06C100.25,104.89,104.21,106.37,104.37,106.44Z"/><path class="cls-1" d="M154.54,69.87l-.92.35a132.57,132.57,0,0,0-20.76,10.56c-9.13,5.72-18.16,12.76-22,16.47s-5.36,6.68-5.83,8.43a4.52,4.52,0,0,0-.19,1.36l.21,2.5-6.09-8,0-.19c0-.2-.3-4.52,6.45-11,4.42-4.25,13.68-11.11,22.83-16a180.92,180.92,0,0,1,22-9.41l.5-.16Zm-50.92,35.41c.52-1.92,2-5,6.22-9.08,3.91-3.76,13-10.88,22.25-16.66A138.66,138.66,0,0,1,152.2,69.21l-2.07-2.7a183.71,183.71,0,0,0-21.26,9.16c-9,4.8-18.14,11.55-22.49,15.73-3.95,3.81-5.34,6.68-5.81,8.42a5.93,5.93,0,0,0-.2,1.2Z"/></g></g></svg>