<svg xmlns="http://www.w3.org/2000/svg" viewBox="0 0 129.56 122.33"><defs><style>.cls-1{fill:#fff;}</style></defs><g id="圖層_2" data-name="圖層 2"><g id="圖層_1-2" data-name="圖層 1"><rect class="cls-1" x="70" y="76.05" width="16.98" height="2.34" transform="translate(-14.03 136.91) rotate(-77.36)"/><rect class="cls-1" x="80.02" y="78.19" width="16.59" height="2.34" transform="translate(-8.45 148.17) rotate(-77.36)"/><rect class="cls-1" x="36.14" y="31.89" width="22.28" height="2.35" transform="translate(-2.18 3.36) rotate(-3.97)"/><rect class="cls-1" x="36.95" y="46.63" width="22.91" height="2.35" transform="translate(-3.2 3.47) rotate(-3.97)"/><path class="cls-1" d="M93.3,72.58h0q-1.64,0-3.27-.15A36,36,0,0,1,79.92,70a36.11,36.11,0,0,1-21.2-22.65,35.58,35.58,0,0,1-1.49-15.22,32.37,32.37,0,0,1,.64-3.84A36.21,36.21,0,0,1,101.23.9a36.27,36.27,0,0,1,27.44,43.35A36.07,36.07,0,0,1,93.3,72.58ZM93.22,2.35A34.14,34.14,0,0,0,60.16,28.83a29.7,29.7,0,0,0-.6,3.58A33.39,33.39,0,0,0,61,46.65,33.9,33.9,0,1,0,93.22,2.35Z"/><path class="cls-1" d="M19.67,61.8h0A19.67,19.67,0,0,1,3.05,52.65a19.66,19.66,0,0,1,16.6-30.16A20.27,20.27,0,0,1,24,23a19.66,19.66,0,0,1-4.3,38.84Zm0-37A17.31,17.31,0,0,0,15.87,59a17.31,17.31,0,0,0,20-10.85,20,20,0,0,0,.67-2.24A17.32,17.32,0,0,0,23.46,25.25,17.51,17.51,0,0,0,19.65,24.83Z"/><path class="cls-1" d="M78.21,122.33h0a19.15,19.15,0,0,1-4.19-.47A19,19,0,1,1,87,86.41a19.05,19.05,0,0,1-8.83,35.92Zm0-35.73a14.92,14.92,0,0,0-1.5.07,16.69,16.69,0,0,0-2.21,32.91,16.68,16.68,0,0,0,20-12.63A16.74,16.74,0,0,0,86,88.49a17,17,0,0,0-7.71-1.89Z"/><path class="cls-1" d="M106.89,33a9.32,9.32,0,1,1,9.3-9.31A9.33,9.33,0,0,1,106.89,33Zm0-16.28a7,7,0,1,0,7,7A7,7,0,0,0,106.89,16.69Z"/></g></g></svg>