<svg xmlns="http://www.w3.org/2000/svg" viewBox="0 0 151.4 175.91"><defs><style>.cls-1{fill:#fff;}</style></defs><g id="圖層_2" data-name="圖層 2"><g id="圖層_1-2" data-name="圖層 1"><path class="cls-1" d="M40.14,70a5.62,5.62,0,0,1-.77-.17C30.5,67.31,22.05,43.11,21.23,39.94c-2.23-8.66-8-15.77-14.66-23.5L4,13.43l3.78,1.25c5.19,1.72,14.77,6.45,19.41,12.2-3-8.88-14-19.42-20.92-23.35L0,0,7,1.5C23.38,5,35.91,14.51,41.87,27.78a10.72,10.72,0,0,0-2.46-8.22l-7.17-7.78,8.62,6.15c6,4.27,7.33,10.09,8.62,15.72.13.55.25,1.1.39,1.66.09-.63.17-1.26.25-1.89l.75-5.53L52.39,32c.56,1.53,1.23,3.14,1.92,4.8,3.68,8.86,8.27,19.89-.21,28l-1.52-1.58c7.4-7.11,3.31-17-.3-25.62l-.42-1a14.33,14.33,0,0,1-1,3.32l-1.18,2.56-.86-2.68c-.61-1.91-1-3.83-1.48-5.69-.79-3.48-1.56-6.83-3.38-9.79a13.29,13.29,0,0,1-.86,7.35L42,34.23l-.93-2.6C36.54,19,26.52,9.78,12.52,5.24,21.11,12.1,32.26,24.81,29.77,34l-2.15-.36c.39-5.51-9-11.89-16.53-15.28,5.48,6.55,10.26,13.25,12.26,21C24.88,45.33,33.06,65.76,40,67.71a3.36,3.36,0,0,0,3.49-1L45,68.25A5.69,5.69,0,0,1,40.14,70Z"/><polygon class="cls-1" points="95.14 87.9 71.36 59.7 58.69 70.39 57.28 68.71 71.63 56.62 96.82 86.49 95.14 87.9"/><polygon class="cls-1" points="62.1 115.76 36.91 85.89 51.27 73.78 52.69 75.46 39.99 86.15 63.77 114.35 62.1 115.76"/><polygon class="cls-1" points="90.01 175.91 51.84 154.72 61.96 114.45 71.75 106.19 73.16 107.87 63.91 115.67 54.38 153.63 89.76 173.26 148.83 123.45 135.45 85.25 96.42 88.26 87.17 96.05 85.76 94.37 95.55 86.13 136.96 82.93 151.4 124.15 90.01 175.91"/><path class="cls-1" d="M72.32,108.57,54,86.87l15.7-13.23L88,95.34ZM57.11,87.14l15.48,18.35L84.92,95.08,69.46,76.73Z"/><path class="cls-1" d="M88.43,167.81,64.31,153.6l70-59,9.39,26.63ZM68.09,153.28l20.12,11.85,52.89-44.61-7.84-22.21Z"/><path class="cls-1" d="M51.85,76.16,41.14,63.47,48.84,57,59.53,69.68ZM44.23,63.74l7.88,9.33,4.33-3.65-7.87-9.33Z"/></g></g></svg>