<svg xmlns="http://www.w3.org/2000/svg" viewBox="0 0 238.79 256.88"><defs><style>.cls-1{fill:#fff;}</style></defs><g id="圖層_2" data-name="圖層 2"><g id="圖層_1-2" data-name="圖層 1"><rect class="cls-1" x="212.79" y="67.8" width="6.44" height="2.02" transform="translate(-9.98 86.82) rotate(-22.23)"/><rect class="cls-1" x="17.55" y="146.96" width="6.41" height="2.02" transform="translate(-53.96 18.57) rotate(-22.02)"/><polygon class="cls-1" points="4.87 155.5 0 143.48 7.92 140.26 8.67 142.13 2.63 144.59 5.98 152.87 12.03 150.41 12.79 152.28 4.87 155.5"/><rect class="cls-1" x="13.43" y="136.81" width="6.4" height="2.02" transform="translate(-50.32 16.21) rotate(-21.95)"/><rect class="cls-1" x="208.66" y="57.65" width="6.43" height="2.02" transform="translate(-6.54 83.67) rotate(-22.01)"/><polygon class="cls-1" points="224.72 66.36 223.96 64.5 236.16 59.54 232.79 51.27 220.59 56.22 219.84 54.35 233.9 48.64 238.79 60.66 224.72 66.36"/><path class="cls-1" d="M116.16,206.66a103,103,0,0,1-93.35-59.47q-1-2.06-1.86-4.19c-.87-2.08-1.64-4.11-2.31-6.05A103.82,103.82,0,0,1,30.92,45.21l1.67,1.14a101.73,101.73,0,0,0-12,89.94c.65,1.9,1.41,3.9,2.26,5.93q.87,2.1,1.83,4.11A101.3,101.3,0,0,0,199,161.82l1.65,1.17a103.74,103.74,0,0,1-84.47,43.67Z"/><path class="cls-1" d="M33.15,45.52l-1.68-1.1c.18-.28.37-.55.57-.83l.34-.48L34,44.25l-.36.52Z"/><path class="cls-1" d="M41.5,35.05,40,33.7c.5-.56,1-1.1,1.53-1.64l1.56,1.28-.09.1C42.49,34,42,34.5,41.5,35.05Z"/><path class="cls-1" d="M43.53,32.88l-1.46-1.4c.67-.7,1.35-1.38,2-2.05l1.39,1.46C44.83,31.53,44.18,32.2,43.53,32.88Z"/><path class="cls-1" d="M47.84,28.67,46.47,27.2c.65-.61,1.32-1.21,2-1.8l1.33,1.53C49.13,27.5,48.48,28.08,47.84,28.67Z"/><path class="cls-1" d="M49.82,26.91l-1.33-1.52c.74-.66,1.5-1.29,2.28-1.92L52,25C51.28,25.65,50.54,26.27,49.82,26.91Z"/><path class="cls-1" d="M57.2,21.07,56,19.43c.66-.47,1.31-.93,2-1.37l1.13,1.68C58.47,20.17,57.84,20.61,57.2,21.07Z"/><path class="cls-1" d="M118.78,2.05h0c-.82,0-1.62,0-2.44,0V0c.83,0,1.64,0,2.47,0Z"/><path class="cls-1" d="M125.06,2.4H125c-.65-.06-1.32-.12-2-.16l.13-2,2,.16Z"/><path class="cls-1" d="M128.18,2.73c-.56-.08-1.11-.14-1.67-.19l.21-2c.58.06,1.14.12,1.72.2Z"/><path class="cls-1" d="M134.66,3.71c-.76-.15-1.51-.28-2.28-.4l.3-2c.8.12,1.57.26,2.37.41Z"/><path class="cls-1" d="M155,9.73a98.64,98.64,0,0,0-13.73-4.56c-2-.51-4-1-6.05-1.35l.38-2c2.14.41,4.16.86,6.17,1.38a101.82,101.82,0,0,1,14,4.66Z"/><path class="cls-1" d="M165.58,14.82c-.78-.44-1.57-.85-2.35-1.25l.92-1.8c.81.41,1.62.84,2.42,1.3Z"/><path class="cls-1" d="M170.32,17.62l-.15-.08c-.61-.39-1.24-.78-1.87-1.15-.86-.53-1.74-1-2.59-1.49l1-1.76c.89.49,1.79,1,2.66,1.52.63.37,1.26.77,1.9,1.16Z"/><path class="cls-1" d="M173.31,19.59c-.68-.47-1.38-.93-2.07-1.37l1.09-1.7,2.13,1.41Z"/><path class="cls-1" d="M175.61,21.2c-.72-.53-1.46-1.05-2.21-1.55L174.52,18c.77.52,1.54,1.05,2.28,1.6Z"/><path class="cls-1" d="M218,121.42l-2-.37c.2-1.12.38-2.26.55-3.38.32-2.26.57-4.57.75-6.86a100.2,100.2,0,0,0-5.26-40.46c-.65-1.89-1.39-3.83-2.26-5.95-.58-1.39-1.18-2.76-1.82-4.11a101.16,101.16,0,0,0-32.22-39L177,19.67a103.1,103.1,0,0,1,32.86,39.76q1,2.07,1.87,4.2c.89,2.16,1.64,4.14,2.3,6.06A102.23,102.23,0,0,1,219.34,111c-.18,2.33-.44,4.68-.77,7C218.41,119.11,218.22,120.26,218,121.42Z"/><path class="cls-1" d="M217.39,124.65l-2-.41c.18-.86.36-1.72.51-2.59l2,.34C217.76,122.89,217.57,123.77,217.39,124.65Z"/><path class="cls-1" d="M215.66,131.59l-1.94-.54.06-.2c.19-.68.37-1.36.55-2l2,.5c-.18.71-.38,1.4-.57,2.09Z"/><path class="cls-1" d="M212.42,141.15l-1.91-.65,0-.09c.26-.65.52-1.3.76-2l1.89.69C213,139.81,212.69,140.48,212.42,141.15Z"/><path class="cls-1" d="M202.76,159.85l-1.75-1,.05-.09c.46-.71.92-1.43,1.36-2.16l1.73,1.05C203.69,158.39,203.23,159.12,202.76,159.85Z"/><path class="cls-1" d="M141.81,156.77l-.45,0c-1,0-2.09-.11-3.11-.2s-2.17-.2-3.3-.2l-1.77,0,.59-1.42c.63-1.49,3.78-4.27,5-4.94a3.64,3.64,0,0,1,1.84-.46,10.31,10.31,0,0,1,4.28,1.38,16.41,16.41,0,0,0,1.66.75l.63.23,0,.66a3.28,3.28,0,0,1-.89,2.52A6.43,6.43,0,0,1,141.81,156.77Zm-5.13-2.38c.6,0,1.18.1,1.76.15,1,.09,2,.19,3,.19l.37,0a4.47,4.47,0,0,0,3-1,1.31,1.31,0,0,0,.28-.44c-.36-.16-.74-.35-1.13-.54-1.57-.77-3.25-1.53-4.25-1A18.07,18.07,0,0,0,136.68,154.39Z"/><path class="cls-1" d="M156.08,184.53a21.13,21.13,0,0,1-7.88-1.42l-3.6-1.49,3.87-.45c8.85-1,9.17-8.91,9.48-16.54a48,48,0,0,1,.61-7,95.27,95.27,0,0,1,6.61-15.69c-3.65,1.17-8.31,1.55-12.84,1.92s-9.07.74-11.86,1.9l-3.95,1.65,2.8-3.24c4.41-5.12,5.91-12.91,5.84-18.5a49.07,49.07,0,0,0-.85-5.5c-.66-3.38-1.33-6.85-.7-10.13-4.28.62-5.35,3.44-6.67,6.92-1,2.61-2,5.3-4.56,7.2a10.6,10.6,0,0,1-6.66,2.36A23.55,23.55,0,0,1,118.6,125a24.89,24.89,0,0,0-8.94-1.66l-1.93.1,1.14-1.83c2-3.28,4.83-7.77,4.52-11.49a6.35,6.35,0,0,0-.18-1.06,13.58,13.58,0,0,0-1.24,2.69l-.09.24c-.54,1.42-1.09,2.9-2.22,3.71a13.87,13.87,0,0,1-4.77,1.71,16,16,0,0,0-4.76,1.63c-3.3,2.59-4.88,4.93-4.38,6.55s3.56,3,8.11,3.28l1.48.11-.64,1.34c-2.36,4.89-7.19,6.05-11.87,7.17a37.47,37.47,0,0,0-5.63,1.67c-5.06,1.4-7,4-9.22,7a22.23,22.23,0,0,1-6.7,6.61,11.07,11.07,0,0,1-5.88,1.95c-6.18,0-9.65-6.87-10.26-13.26l-.11-1c-.51-4.32-.58-4.87,1.08-5.81a11,11,0,0,0,3.6-3.4A51.48,51.48,0,0,0,66,117.15c0-.17.08-.26.1-.36,2.61-9.47-.23-15.11-3.25-21.08-2.19-4.34-4.46-8.83-4.83-15-.14-10,2.75-11.51,11.14-14.31,4.08-1.33,6.59-2,8.16-2,2.55,0,3,1.84,3.37,3.8a21.46,21.46,0,0,0,2.81,7.26c2,3.93,3.43,4.19,5.94,4.66A21.29,21.29,0,0,1,94,81.37c4,1.9,4.78,2.42,4.8,4.22,0,.66,0,1.67,1.48,4,1.66,2.76,3.15,4.09,4.57,4.09,1.9,0,4.06-2.27,6.56-4.91,1.27-1.34,2.69-2.84,4.27-4.24a9.22,9.22,0,0,0-3-2.31l-2.25-.91,1.16-.5-.19,0a38.69,38.69,0,0,0-3.82-.72l.07-2c4.73,0,6.41-2.26,6.4-4.33,0-1.33-.79-2.77-2-2.77-.62,0-2.8.43-5.1,6l-2.45,5.93.52-6.39a13.59,13.59,0,0,1,.27-1.79.13.13,0,0,1,0-.06l-1.19.3a7.22,7.22,0,0,0-4,1.88l-1.89,1.86L98.32,76c.31-4.54,3.49-7.33,6.29-9.8,2-1.74,3.37-3,3.75-4.39a36.65,36.65,0,0,1-9.94,1.55,12.87,12.87,0,0,1-4.83-.75c-6.09-2.15-6.43-5.45-6.86-9.64A37.9,37.9,0,0,0,86,48.19l-.26-1.1L86.87,47c2.32-.26,4.89.53,7.35,1.31,2.25.72,4.55,1.48,6.49,1.24A10.69,10.69,0,0,0,106,47.35c1.64-1.05,3.35-2.15,5.37-2.15a6.05,6.05,0,0,1,2.29.47l1.1.46-.63,1c-1.62,2.61-1.36,3.66-1.18,4,.36.64,1.51.74,2.16.74A13.2,13.2,0,0,0,122,49.62l1.68-1.24-.07,2.09c-.24,7,6.41,11.07,13.14,11.57a5.48,5.48,0,0,0,2.21-1.37,6.08,6.08,0,0,1,3.94-1.9H143a8.46,8.46,0,0,1,4.05.71,6.62,6.62,0,0,0,2.07.54c.74-.05,1.31-.07,1.86-.07l2,0a6.36,6.36,0,0,0,3.47-.74,36,36,0,0,0-6.6-2.54c-4.61-1.48-8.59-2.76-9.13-5.36-.26-1.29.37-2.57,1.94-3.93,1.19-1,3-1.54,5.43-1.54a53.43,53.43,0,0,1,9.5,1.29c3.53.68,6.84,1.33,9.1,1.1h.22a26.91,26.91,0,0,0,3.37-.3,32.87,32.87,0,0,1,4-.33c3.44,0,5.66,1.32,6.79,4,.49,2-.55,3.82-1.55,5.55-1.24,2.13-2.4,4.14-1.19,6.33.93,1.85,2.54,2.69,5.09,2.69a33.73,33.73,0,0,0,8.07-1.5,38.23,38.23,0,0,1,6.05-1.29,8.78,8.78,0,0,1,2,.06l2.09.36-1.59,1.4c-2.62,2.28-5.34,4.92-5.3,7.83.58-.16,1.15-.29,1.68-.4a10.83,10.83,0,0,0,1.69-.45l1-.43.34,1a6.65,6.65,0,0,0,1,2,7.11,7.11,0,0,0,1.25,1.26c1.88,1.62,3.14,3.21,3.19,9.89l.52,0c.86,0,2-.1,3.16-.19s2.45-.2,3.41-.2,2.34,0,2.64,1.15c1.23,4.88,2,9.4,2.76,13.78.61,3.52,1.18,6.84,1.95,10.12l0,.15,0,.16c-.18,2.33-.44,4.68-.77,7-.17,1.15-.35,2.32-.56,3.46a5.74,5.74,0,0,1-.12.63c-.15.85-.32,1.72-.5,2.6-.33,1.57-.7,3.12-1.11,4.66-.14.55-.29,1.11-.45,1.67l-.16.61c-.51,1.76-1.08,3.57-1.77,5.54-.22.66-.46,1.33-.71,2s-.5,1.35-.77,2c-.34.85-.64,1.61-1,2.35-.46,1.13-1,2.26-1.5,3.38-.26.56-.52,1.13-.81,1.7-.78,1.61-1.66,3.28-2.58,4.95-.31.56-.62,1.11-.93,1.63s-.62,1.07-1,1.61a10.21,10.21,0,0,1-.57.93c-.42.69-.88,1.42-1.35,2.15C202,161,201.34,162,200.62,163l-.43.62-.72-.25c-.58-.21-1.17-.43-1.75-.66-2.65-1-5.26-1.9-7.9-1.07l-2.73.85,1.59-2.38c.38-.56.76-1.13,1.16-1.68l-.37.15-.39-.93c-1.35-3.27-3.9-5.22-6.8-5.22a8.75,8.75,0,0,0-6.44,3.41c-2.09,2.85-1.48,6.26-.83,9.87.48,2.63,1,5.36.31,7.93C173.1,180.8,164,184.52,156.08,184.53Zm-3.56-2.31c7.66,1.28,18.61-1.88,20.86-9.14.53-2.09.1-4.49-.35-7-.7-3.88-1.42-7.88,1.24-11.49,2.33-2.71,5.16-4.17,8-4.17,3.45,0,6.48,2.06,8.25,5.55l1-.42,1.93-.8,7.36-3-6.39,4.72a13.22,13.22,0,0,0-2.72,2.78,16.37,16.37,0,0,1,6.73,1.56l1,.37c.54-.77,1.07-1.56,1.6-2.36s1-1.5,1.4-2.23c.21-.31.37-.58.52-.85.35-.56.66-1.07.95-1.59s.62-1.07.91-1.59c.91-1.65,1.77-3.29,2.54-4.89.29-.56.54-1.11.79-1.65.52-1.11,1-2.2,1.47-3.31.32-.74.61-1.48.91-2.23s.55-1.38.79-2.05.47-1.31.7-2c.67-1.93,1.23-3.71,1.72-5.42l.17-.61c.15-.55.3-1.09.44-1.64.4-1.52.76-3,1.09-4.56.17-.86.34-1.73.5-2.61.05-.21.07-.38.1-.55.21-1.14.39-2.29.56-3.41.31-2.21.56-4.46.74-6.7-.77-3.29-1.33-6.59-1.94-10.09-.72-4.22-1.47-8.57-2.63-13.22a35.82,35.82,0,0,0-4,.16c-1.18.09-2.4.19-3.32.19-1.18,0-1.79-.15-2.18-.55l-.29-.3-.07-.58c0-6.8-1.14-7.8-2.49-9A9.41,9.41,0,0,1,198.83,76a7.72,7.72,0,0,1-.93-1.63c-.33.09-.68.16-1,.24a13.24,13.24,0,0,0-2.55.72l-1.08.45-.29-1.14c-.94-3.67,1.47-6.86,3.76-9.11-1.39.22-3,.65-4.7,1.1a35.34,35.34,0,0,1-8.59,1.57c-3.31,0-5.62-1.27-6.87-3.77-1.75-3.16-.1-6,1.22-8.28.84-1.46,1.64-2.83,1.38-3.92-.76-1.8-2.24-2.64-4.87-2.64a30,30,0,0,0-3.71.33,30.87,30.87,0,0,1-3.62.31c-2.56.23-6-.41-9.7-1.13a52.39,52.39,0,0,0-9.12-1.26c-1.93,0-3.31.35-4.1,1s-1.39,1.52-1.29,2c.3,1.44,4.44,2.77,7.77,3.83s6.69,2.15,8.37,3.74l.81.76-.83.73A7.94,7.94,0,0,1,153,62l-2,0c-.5,0-1,0-1.58.05a7.92,7.92,0,0,1-3-.64,6.64,6.64,0,0,0-3.15-.6l-.11,0H143a4.33,4.33,0,0,0-2.76,1.41,6.77,6.77,0,0,1-3.32,1.86h-.22c-8.27-.57-14.31-5.45-15.07-11.89a15.38,15.38,0,0,1-6.5,1.7c-2.43,0-3.47-1-3.92-1.77-.68-1.22-.5-2.82.56-4.87-1.57-.15-3,.74-4.67,1.81s-3.71,2.38-6.22,2.47a7.63,7.63,0,0,1-.89,0A22.11,22.11,0,0,1,93.6,50.2a22.33,22.33,0,0,0-5.38-1.27c.26,1.4.39,2.68.51,3.83.42,4,.64,6.23,5.58,8,3.18,1.31,11.42.07,14.72-1.29l1.16-.48.22,1.23c.55,3.12-1.89,5.26-4.47,7.53-2,1.78-4.11,3.61-5.07,6.06a13.59,13.59,0,0,1,2.66-.84,16.16,16.16,0,0,0,2.5-.74l1.47-.61c1.77-2.26,3.42-2.69,4.43-2.69,2.27,0,4.06,2.1,4.07,4.78A5.87,5.87,0,0,1,112.63,79l1.42.3.53.1.21.5a1.35,1.35,0,0,1-.06,1.19,8.71,8.71,0,0,1,3.18,3.27l.28.69-.56.47a57.1,57.1,0,0,0-4.78,4.65c-2.82,3-5.25,5.54-8,5.54-2.21,0-4.21-1.61-6.29-5.05-1.74-2.78-1.76-4.18-1.77-5,0-.52,0-.7-3.61-2.41a19.08,19.08,0,0,0-4.08-1.12c-2.71-.5-4.86-.9-7.32-5.64a23.2,23.2,0,0,1-3-7.84c-.46-2.13-.57-2.2-1.4-2.2-1.29,0-3.84.75-7.53,1.94-7.58,2.54-9.88,3.3-9.75,12.33.34,5.66,2.51,10,4.61,14.12,3.06,6,6.22,12.31,3.41,22.46a3.56,3.56,0,0,1-.13.48,53.54,53.54,0,0,1-6.54,14.62l-.15.21a12.65,12.65,0,0,1-4.14,3.85,2.61,2.61,0,0,0-.38.24,21.25,21.25,0,0,0,.3,3.59l.12,1c.54,5.7,3.55,11.45,8.25,11.45a9.13,9.13,0,0,0,4.82-1.65A20.59,20.59,0,0,0,76.36,145c2.25-3,4.57-6.19,10.18-7.74a39.44,39.44,0,0,1,5.82-1.72c3.9-.94,7.6-1.83,9.75-4.8-4.64-.58-7.56-2.17-8.29-4.55-.78-2.54.94-5.49,5.12-8.77a17.4,17.4,0,0,1,5.47-2,13.53,13.53,0,0,0,4-1.37,6.45,6.45,0,0,0,1.53-2.8l.09-.23c.63-1.68,1.34-3.56,2.93-4.63l.92-.61.53,1a7.76,7.76,0,0,1,.94,3.18c.33,3.85-1.94,8-4,11.37a30.79,30.79,0,0,1,7.79,1.75,22.23,22.23,0,0,0,6.51,1.42,8.62,8.62,0,0,0,5.45-2c2.08-1.55,3-3.86,3.88-6.31,1.45-3.79,3.08-8.1,9.86-8.34l1.44-.05-.45,1.37c-1,3.2-.34,6.78.39,10.56a50.36,50.36,0,0,1,.89,5.81c.06,5.17-1.13,12.05-4.5,17.41a75.27,75.27,0,0,1,9.48-1.15c5.74-.47,11.67-.95,15.09-3l4.27-2.57-2.93,4c-3.38,4.63-7.11,14.68-8.08,17.82a48.79,48.79,0,0,0-.55,6.62C159.7,171.34,159.37,179.35,152.52,182.22Z"/><path class="cls-1" d="M59.63,50.73c-2.27,0-4.58-.22-6.81-.44A48.6,48.6,0,0,0,44,50c-.92,0-1.68.08-2.38.08a13,13,0,0,1-6.4-1.54c-1.55-.77-2.66-1.29-3.66-1.7H30.12l.9-1.72c.15-.23.31-.47.48-.7.26-.4.57-.86.9-1.3s.5-.68.76-1c.71-1,1.47-2,2.26-3q.54-.69,1.11-1.38c1.14-1.38,2.31-2.73,3.47-4,.5-.55,1-1.09,1.52-1.64l.56-.58c.66-.69,1.34-1.37,2-2s1.56-1.5,2.36-2.24,1.32-1.2,2-1.79,1.52-1.3,2.3-1.93c1.62-1.33,3.39-2.69,5.25-4,.64-.47,1.3-.93,2-1.37,1.56-1.07,3.13-2.07,4.63-3l1.17-.71c.64-.38,1.31-.76,2-1.13l1.4-.78.1,1.6a10,10,0,0,1-1.45,6.87,3.22,3.22,0,0,1-1.45,1.25,3.27,3.27,0,0,0-.94.7,3.31,3.31,0,0,0-.27,1.41,5,5,0,0,1-.25,1.55,12.41,12.41,0,0,0-.61,1.38A4.85,4.85,0,0,1,60,30.15a16,16,0,0,1,3.88,9,20.58,20.58,0,0,1-.43,3.3c-.48,2.59-.78,4.15,1.94,6l1.95,1.31L65,50.19A24.74,24.74,0,0,1,59.63,50.73ZM46.26,47.84c2.24,0,4.53.23,6.75.44a49.55,49.55,0,0,0,9.49.28c-1.88-2.12-1.46-4.36-1-6.54a18.73,18.73,0,0,0,.4-2.91c-.17-3.27-2.38-6.68-4.24-8.58l-1-1.06L58,28.89c1.83-.75,2-1.27,2.45-2.39A12,12,0,0,1,61.06,25a6.45,6.45,0,0,0,.07-.82,4.61,4.61,0,0,1,.6-2.41,4.58,4.58,0,0,1,1.6-1.32A3.88,3.88,0,0,0,64,20a7.22,7.22,0,0,0,1.26-4.13l-.47.27-1.16.7c-1.48.89-3,1.88-4.55,2.93-.66.44-1.3.88-1.91,1.33-1.83,1.33-3.57,2.66-5.17,4-.76.61-1.5,1.23-2.22,1.87s-1.34,1.17-2,1.76c-.79.73-1.56,1.46-2.32,2.21s-1.34,1.32-2,2l-.44.45c-.6.64-1.1,1.17-1.59,1.72-1.15,1.25-2.29,2.57-3.41,3.93-.38.44-.73.88-1.08,1.34-.78,1-1.52,1.93-2.23,2.93-.27.34-.51.68-.74,1s-.52.72-.76,1.07c.81.36,1.71.79,2.83,1.35,3.18,1.53,4.61,1.39,7.76,1.26C44.63,47.87,45.44,47.84,46.26,47.84Z"/><path class="cls-1" d="M78.24,155.62c-3.26,0-3.71-2.15-3.76-3.07l0-1.07H75.5c1.12,0,2.59-1.1,3.88-2.07a17.06,17.06,0,0,1,2.4-1.61,20.19,20.19,0,0,1,4.89-2,8.44,8.44,0,0,1,4,.33,10.14,10.14,0,0,0,2.16.4l3.71.16-3.28,1.74a17.13,17.13,0,0,0-3,2.3,14.37,14.37,0,0,1-5.5,3.48l-1,.29A20.71,20.71,0,0,1,78.24,155.62Zm-1.4-2.34a2.3,2.3,0,0,0,1.4.32,19.39,19.39,0,0,0,4.9-1l1-.31a13,13,0,0,0,4.69-3.05c.43-.38.86-.76,1.31-1.12h0a6.55,6.55,0,0,0-3.08-.3,19.18,19.18,0,0,0-4.36,1.82A16.1,16.1,0,0,0,80.59,151,13.66,13.66,0,0,1,76.84,153.28Z"/><polygon class="cls-1" points="126.81 179.74 125.79 179.74 126.81 178.72 126.81 179.74"/><path class="cls-1" d="M117.73,205.93a12.77,12.77,0,0,1-4.8-.79,11.14,11.14,0,0,1-4.06-3.28,7.7,7.7,0,0,0-3.61-2.77l-6.64-1.91,6.91-.08c.45,0,1.8,0,1.78-2.72,0-4.7-4.43-12.51-9.07-12.51a4.42,4.42,0,0,0-1.95.46l-3.09,1.49L95,180.9c1-1.56,1-3.43,1-5.41a13.67,13.67,0,0,1,.94-5.88c2.14-4.22,4.86-4.44,8.4-4.3.53,0,1.07,0,1.64,0h.5a30.12,30.12,0,0,0,3.36-.74c2.74-.7,5.44-1.08,8.38.29a17.2,17.2,0,0,1,3.64,2.18,10.27,10.27,0,0,0,5,2.33h.27a14.45,14.45,0,0,0,3.06-.58c2.39-.62,4.52-.92,5.38.26a3.49,3.49,0,0,1,.09,3.1c-.72,2.6-2.74,3.23-4.37,3.75a7.72,7.72,0,0,0-2.25,1,13.2,13.2,0,0,0-1.85,1.26,5.09,5.09,0,0,1-.34,1.72,14.8,14.8,0,0,1-.58,4.59,6.85,6.85,0,0,0,1.92,2.62c1.14,1.13,2.5,2.47,2.38,4.71a27.45,27.45,0,0,1,9.71-1.39c.71,0,1.37,0,2,0l6.39.21-6.15,1.76c-3.25.94-5.4,3.29-7.69,5.77-2.65,2.88-5.39,5.86-10,6.67A39,39,0,0,1,117.73,205.93ZM108,198.21a14.91,14.91,0,0,1,2.38,2.31,9.3,9.3,0,0,0,3.32,2.76,10.81,10.81,0,0,0,4,.63,37.16,37.16,0,0,0,7.69-1c3.94-.7,6.33-3.3,8.86-6a31.87,31.87,0,0,1,4.57-4.34c-3.79.2-6.6.9-8.21,2.05l-2.86,2,1.34-3.24c1-2.46.06-3.4-1.37-4.82a8,8,0,0,1-2.53-3.82l-2.2-8.85,2.36,4.72.5-1.23a3.66,3.66,0,0,0,.29-1.21c.08-1.19.52-1.56,2.74-2.92a9.81,9.81,0,0,1,2.76-1.2c1.66-.53,2.62-.89,3-2.4.32-1,.22-1.29.2-1.33a1,1,0,0,0-.42,0,13.59,13.59,0,0,0-2.81.55,12.86,12.86,0,0,1-4.08.62,12.14,12.14,0,0,1-5.95-2.7,16.19,16.19,0,0,0-3.27-2c-2.54-1.18-4.51-.84-7.06-.18a30.23,30.23,0,0,1-3.71.78l-.66,0c-.59,0-1.17,0-1.72,0-2.59-.09-4.65-.5-6.5,3.17a11.69,11.69,0,0,0-.74,5,17.41,17.41,0,0,1-.41,4.37c6.15-.68,11.72,8.68,11.75,14.49A5,5,0,0,1,108,198.21Z"/><path class="cls-1" d="M166.11,23.73c-4.28,0-8-2.32-11.55-4.57-2.8-1.76-5.7-3.57-8.92-4.35l-3.93-1,3.91-1A15.13,15.13,0,0,0,151,10.11a16.65,16.65,0,0,1,3.79-2.18l.31-.33.65.25c.25.09.5.21.74.32.53.2,1.12.47,1.69.73s1,.47,1.57.71c1.48.68,2.94,1.41,4.38,2.17.8.4,1.62.84,2.41,1.28l.15.1c.78.42,1.54.87,2.31,1.32l.29.17c.69.41,1.38.84,2.06,1.26l.93.6c.73.47,1.44.94,2.15,1.42l.19.14c.64.42,1.41.95,2.15,1.5l1.73,1.26-1.92.64c-.83.21-1.66.44-2.5.67a46.67,46.67,0,0,1-6.68,1.51A12.13,12.13,0,0,1,166.11,23.73Zm-17.17-10a44.12,44.12,0,0,1,6.69,3.67c3.82,2.4,7.4,4.65,11.57,4.2a45.46,45.46,0,0,0,6.37-1.45l.45-.13-.62-.42c-.77-.53-1.47-1-2.16-1.43l-.92-.6-2-1.23-.29-.17c-.76-.45-1.51-.89-2.29-1.31l-.14-.09c-.81-.45-1.56-.86-2.33-1.25-1.43-.75-2.86-1.46-4.31-2.13l-1.54-.7c-.56-.25-1.11-.5-1.66-.72l-.34-.15a14.82,14.82,0,0,0-3.19,1.89A22.43,22.43,0,0,1,148.94,13.78Z"/><path class="cls-1" d="M141.09,21.19a38.43,38.43,0,0,0-11.31-5.53,24.19,24.19,0,0,0-4.14-.72c-2.79-.32-5.68-.66-8.2-2.83a19.1,19.1,0,0,1-2.88-3.25,11.19,11.19,0,0,0-4.43-4,9.09,9.09,0,0,0-4.28-.94,2.49,2.49,0,0,0-1.11.33c-1.54.8-1.5,1.09-1.28,2.49a12,12,0,0,1,.18,2.8c-.15,3.63-1.06,8-6.94,9.24-.23,0-.45.1-.69.16-1.46.35-3.46.84-4.89-.8-.66-.76-1.47-1.89-1-3s2.12-1.23,3.53-1.26a7.38,7.38,0,0,0,1.34-.1,5,5,0,0,0,1.7-5.28,5.39,5.39,0,0,0-.74-2,2.22,2.22,0,0,1-.55.19,9.24,9.24,0,0,1-2.45.4,33.88,33.88,0,0,1-4.14-.48c-.64-.11-1.28-.21-1.91-.29-3.32,1-6.43,2.15-9.49,3.42A103.28,103.28,0,0,0,66.74,15l-1-1.77A106.43,106.43,0,0,1,86.51,4.41l.17,0A102.34,102.34,0,0,1,98.85,1.5c.6-.11,1.22-.22,1.83-.29,1.13-.18,2.3-.35,3.47-.48.42-.06.89-.11,1.34-.15,1.94-.22,3.92-.37,5.89-.46.8,0,1.6-.08,2.41-.09,1.67,0,3.31,0,5,0l1.32.05c1,0,1.91.08,2.87.14s1.53.11,2.2.16l1.57.15c.58.06,1.16.12,1.73.2l1,.12c1.09.15,2.15.3,3.2.47.79.12,1.56.26,2.36.41l.51.1c2.18.41,4.2.86,6.21,1.38l2,.51L142.14,5A35.07,35.07,0,0,0,139,8c-.78.81-1.59,1.64-2.51,2.48a17.6,17.6,0,0,1,3,4.8,13.61,13.61,0,0,0,2.87,4.4Zm-49-5.13a4.82,4.82,0,0,0,.55.75c.58.67,1.48.5,2.89.17l.76-.18C100,16,101.44,14,101.62,9.43a10,10,0,0,0-.15-2.38c-.22-1.39-.45-2.82,1.58-4.15-.7.09-1.4.2-2.09.31s-1.19.18-1.76.28c-2.53.43-5,1-7.46,1.57L93,5.15a6.83,6.83,0,0,0,1.89-.33,2.59,2.59,0,0,1,2.11,0c.81.47,1.21,1.5,1.68,3.25a7.09,7.09,0,0,1-2.45,7.33,4.23,4.23,0,0,1-2.5.53A10.53,10.53,0,0,0,92.09,16.06ZM108.92,2.29a19.18,19.18,0,0,1,2,.73,13.17,13.17,0,0,1,5.23,4.62,17.39,17.39,0,0,0,2.59,2.94c2,1.77,4.51,2.05,7.11,2.35a25.42,25.42,0,0,1,4.48.8,41.05,41.05,0,0,1,7.74,3.2c-.14-.27-.27-.55-.4-.82a14,14,0,0,0-3.36-4.94l-.89-.77.9-.77a43.33,43.33,0,0,0,3.21-3.07c.61-.64,1.21-1.26,1.84-1.86-1.35-.32-2.73-.61-4.17-.88l-.52-.1c-.8-.16-1.55-.29-2.32-.41l-3.15-.46-1-.12c-.6-.08-1.16-.14-1.72-.19l-1.46-.14c-.73-.06-1.4-.12-2.06-.16-1.1-.07-2-.12-3-.15l-1.25,0c-1.69,0-3.29,0-4.93,0-.78,0-1.57,0-2.35.08Z"/><path class="cls-1" d="M116.33,218.82a115.23,115.23,0,0,1-39.93-7.15l.7-1.89a113.45,113.45,0,0,0,146.29-144c-.59-1.7-1.24-3.4-1.92-5.1-.78-1.91-1.47-3.49-2.16-5-.8-1.75-1.69-3.56-2.73-5.54l-3.5,1.43c1,1.87,1.9,3.69,2.7,5.43.7,1.47,1.4,3.08,2.2,5.05.67,1.65,1.33,3.38,2,5.17A109.71,109.71,0,0,1,16.86,149.59c-.74-1.57-1.46-3.23-2.21-5.05s-1.37-3.54-1.94-5.19c-.64-1.83-1.26-3.76-1.84-5.75L7.37,135c.6,2.06,1.22,4,1.88,5.84.6,1.71,1.24,3.42,1.91,5.07s1.4,3.35,2.16,5a113.17,113.17,0,0,0,58.14,56.61l-.79,1.85a115.13,115.13,0,0,1-59.18-57.61q-1.15-2.51-2.19-5.07c-.69-1.69-1.35-3.43-2-5.17-.76-2.16-1.47-4.39-2.16-6.82l-.25-.87,7.27-3,.31,1.1c.65,2.33,1.36,4.59,2.11,6.71.55,1.63,1.18,3.29,1.9,5.1s1.44,3.41,2.17,5A107.69,107.69,0,0,0,218,67.92c-.59-1.69-1.23-3.39-1.91-5.07-.79-1.93-1.48-3.5-2.17-5-.93-2-2-4.13-3.18-6.32l-.54-1,7.28-2.95.43.8c1.24,2.33,2.28,4.43,3.19,6.43.71,1.49,1.41,3.1,2.21,5.06q1,2.58,1.95,5.18a115.51,115.51,0,0,1-109,153.72Z"/><polygon class="cls-1" points="73.78 220.35 71.92 219.56 76.99 207.57 73.21 205.97 68.14 217.96 66.28 217.17 72.14 203.32 79.64 206.5 73.78 220.35"/><rect class="cls-1" x="64.27" y="227.94" width="9.52" height="2.02" transform="translate(-168.75 203.65) rotate(-67.15)"/><rect class="cls-1" x="58.64" y="225.56" width="9.52" height="2.02" transform="translate(-169.98 196.8) rotate(-67.1)"/><path class="cls-1" d="M74.71,227.28l-14.06-5.95,2.73-6.46,14.06,5.93Zm-11.42-7,10.35,4.37,1.16-2.76-10.34-4.36Z"/><polygon class="cls-1" points="89.76 252.63 69.93 235.59 58.01 230.55 31.96 228.19 32.15 226.18 58.66 228.63 71.12 233.96 91.07 251.1 89.76 252.63"/><path class="cls-1" d="M89.39,256.88,29.17,231.4l2.35-5.53,60.22,25.46ZM31.82,230.33l56.49,23.9.78-1.83-56.5-23.89Z"/></g></g></svg>