<svg xmlns="http://www.w3.org/2000/svg" viewBox="0 0 144.11 93.12"><defs><style>.cls-1{fill:#fff;}</style></defs><g id="圖層_2" data-name="圖層 2"><g id="圖層_1-2" data-name="圖層 1"><rect class="cls-1" x="-12.3" y="72.5" width="38.67" height="3.23" transform="translate(-66.03 59.84) rotate(-73.52)"/><rect class="cls-1" x="18.41" y="53.74" width="3.23" height="32.41" transform="translate(-30.1 17.22) rotate(-27.57)"/><rect class="cls-1" x="-6.29" y="45.34" width="75.07" height="3.23" transform="translate(-18.59 73.39) rotate(-84.3)"/><rect class="cls-1" x="34.82" y="4" width="109.32" height="3.23" transform="translate(-0.17 6.56) rotate(-4.2)"/><path class="cls-1" d="M90.51,77.39c-9.29,7-19,12-25.3,12.44L65,86.61c9.18-.67,27.6-12.9,38.63-25.66,7.07-8.2,10.59-15.66,10.15-21.59-.62-8.47-3.5-14.5-8.57-17.93-4.35-2.94-10.51-4.14-18.3-3.57-7.41.53-15.59,1.76-20,6.88-3,3.47-4.21,8.53-3.71,15.46L60,40.44c-.57-7.83.89-13.66,4.49-17.82,5.19-6,14.13-7.4,22.19-8C95.19,14,102,15.39,107,18.75c5.93,4,9.29,10.87,10,20.38.63,8.59-5.59,17.75-10.93,23.93A101.86,101.86,0,0,1,90.51,77.39Z"/><rect class="cls-1" x="65.02" y="84.64" width="53.72" height="3.23" transform="translate(-6.05 6.94) rotate(-4.19)"/><path class="cls-1" d="M132.75,31.09c-3.2,2.41-6.54,4.07-8.67,4.23l-.24-3.23c4-.29,14.95-8.67,14.56-13.9a6.45,6.45,0,0,0-1.86-4.59c-1.17-1-3-1.43-5.53-1.25-3,.23-4.73.77-5.63,1.83-.75.87-1,2.22-.9,4.12l-3.23.25c-.21-2.8.34-4.92,1.68-6.48,1.91-2.24,5-2.73,7.84-2.94,3.38-.25,6,.43,7.89,2s2.74,3.8,3,6.8C142,22.31,137.5,27.52,132.75,31.09Z"/><rect class="cls-1" x="123.94" y="31.46" width="17.14" height="3.23" transform="translate(-2.06 9.77) rotate(-4.19)"/></g></g></svg>