<svg xmlns="http://www.w3.org/2000/svg" viewBox="0 0 170.35 121.44"><defs><style>.cls-1{fill:#fff;}</style></defs><g id="圖層_2" data-name="圖層 2"><g id="圖層_1-2" data-name="圖層 1"><rect class="cls-1" x="115.57" y="34.37" width="47.76" height="1.45" transform="translate(5.01 86.11) rotate(-34.91)"/><polygon class="cls-1" points="109.04 33.3 108.21 32.11 150.27 2.71 151.1 3.89 109.04 33.3"/><path class="cls-1" d="M161.75,20.37,149.67,3.12,154.12,0,166.2,17.26ZM151.69,3.48,162.1,18.35l2.08-1.45L153.76,2Z"/><polygon class="cls-1" points="160.38 24.61 158.01 21.23 162.1 18.35 164.48 21.75 163.29 22.58 161.75 20.37 160.03 21.58 161.56 23.78 160.38 24.61"/><path class="cls-1" d="M120.88,57.82l-3-4.33,49.47-34.61,3,4.31-.59.42Zm-1-4,1.37,2,47.1-33L167,20.89Z"/><polygon class="cls-1" points="113.73 53.97 112.67 52.44 113.86 51.61 114.09 51.94 118.87 48.6 108.45 33.72 103.68 37.06 103.91 37.4 102.72 38.23 101.66 36.7 108.81 31.7 120.89 48.96 113.73 53.97"/><path class="cls-1" d="M126.27,36.87l-6.94-9.93,23.55-16.47,6.94,9.92Zm-4.92-9.57,5.28,7.55L147.8,20l-5.28-7.54Z"/><polygon class="cls-1" points="60.01 90.17 59.18 88.98 112.26 51.84 103.14 38.82 50.06 75.95 49.23 74.77 103.5 36.8 114.28 52.2 113.68 52.62 60.01 90.17"/><polygon class="cls-1" points="56.75 92.45 55.92 91.26 58.59 89.4 55.74 85.33 56.93 84.5 60.6 89.75 56.75 92.45"/><rect class="cls-1" x="28.95" y="108.89" width="3.99" height="1.45" transform="translate(-57.36 37.67) rotate(-35.06)"/><rect class="cls-1" x="19.01" y="94.69" width="3.98" height="1.45" transform="translate(-50.87 29.24) rotate(-34.95)"/><polygon class="cls-1" points="52.31 80.44 49.47 76.37 46.8 78.23 45.97 77.05 49.82 74.35 53.5 79.61 52.31 80.44"/><path class="cls-1" d="M32.39,109.48,21.62,94.09,46.56,76.63,57.34,92Zm-8.75-15,9.11,13L55.32,91.68l-9.11-13Z"/><polygon class="cls-1" points="84.23 66.27 83.41 65.09 100.45 53.16 97.86 49.46 80.8 61.38 79.97 60.2 98.22 47.44 102.47 53.52 84.23 66.27"/><path class="cls-1" d="M56.16,85.92,51.9,79.85,80.57,59.78l4.26,6.08ZM53.92,80.2l2.59,3.7,26.3-18.4-2.6-3.7Z"/><polygon class="cls-1" points="10.44 116.46 10.07 115.06 28.12 110.32 19.37 97.82 8.73 113.14 7.54 112.32 19.37 95.28 30.5 111.2 10.44 116.46"/><path class="cls-1" d="M2.08,121.44l-2.08-3,8.28-6.81,3,4.31ZM2,118.75l.53.76,6.72-4L8,113.79Z"/></g></g></svg>