<svg xmlns="http://www.w3.org/2000/svg" viewBox="0 0 79.31 120.89"><defs><style>.cls-1{fill:#fff;}</style></defs><g id="圖層_2" data-name="圖層 2"><g id="圖層_1-2" data-name="圖層 1"><path class="cls-1" d="M38.63,62.45c-.23-.37-.47-.72-.7-1.08-3-4.5-7.18-7.9-11.21-10.92l-2.45-1.81c-4-3-8.16-6-11.58-9.91A68.29,68.29,0,0,1,3.67,26,31.21,31.21,0,0,1,.19,16,19.71,19.71,0,0,1,0,12l3,.21a16.39,16.39,0,0,0,.13,3.39,28.61,28.61,0,0,0,3.15,8.93A65.73,65.73,0,0,0,15,36.72c3.21,3.63,7,6.47,11.11,9.47L28.54,48c4.25,3.17,8.64,6.78,11.92,11.66.26.39.51.78.76,1.19Z"/><rect class="cls-1" x="1.39" y="11.37" width="27.7" height="3.04" transform="translate(-2.37 3.49) rotate(-12.14)"/><rect class="cls-1" x="4.72" y="20.93" width="26.44" height="3.04" transform="translate(-4.34 4.29) rotate(-12.19)"/><rect class="cls-1" x="13.6" y="34.05" width="20.46" height="3.04" transform="translate(-6.94 5.8) rotate(-12.13)"/><rect class="cls-1" x="27.52" y="46.72" width="9.39" height="3.04" transform="translate(-9.46 7.89) rotate(-12.19)"/><path class="cls-1" d="M38.41,61.48c.05-.39.11-.8.17-1.19,1-6,3.53-11.11,6.09-15.75.51-.94,1-1.87,1.56-2.81,2.44-4.36,4.74-8.48,6.14-13.06A65.55,65.55,0,0,0,55.2,14a28.39,28.39,0,0,0-.83-9.45,14.86,14.86,0,0,0-1.26-3.13L55.79,0a18.16,18.16,0,0,1,1.5,3.74,31.37,31.37,0,0,1,.94,10.45,67.2,67.2,0,0,1-2.95,15.36c-1.49,4.9-4,9.35-6.4,13.66-.52.93-1,1.86-1.55,2.8-2.43,4.4-4.8,9.21-5.71,14.57-.09.54-.15.9-.19,1.26Z"/><polygon class="cls-1" points="29.09 11.46 28.45 8.49 55.51 2.66 56.46 5.53 56.43 5.54 29.09 11.46"/><rect class="cls-1" x="30.56" y="15.36" width="26.44" height="3.04" transform="translate(-2.57 9.61) rotate(-12.17)"/><rect class="cls-1" x="33.61" y="29.74" width="20.45" height="3.04" transform="translate(-5.59 9.92) rotate(-12.14)"/><rect class="cls-1" x="36.7" y="44.74" width="9.4" height="3.04" transform="translate(-8.81 9.75) rotate(-12.15)"/><path class="cls-1" d="M76.24,108.63a15.56,15.56,0,0,0-.15-3.38A28.2,28.2,0,0,0,73,96.31a66.07,66.07,0,0,0-8.61-12.18c-3.19-3.61-7-6.42-11.05-9.4l-2.52-1.88c-4-3-8.53-6.61-11.92-11.68-.26-.38-.5-.77-.75-1.17l2.58-1.61c.23.37.44.71.69,1.07,2.82,4.22,6.52,7.43,11.22,11l2.51,1.86c4,2.94,8.12,6,11.52,9.84a68.89,68.89,0,0,1,9,12.78,30.84,30.84,0,0,1,3.45,9.92,18.26,18.26,0,0,1,.17,4Z"/><rect class="cls-1" x="50.23" y="106.43" width="27.68" height="3.04" transform="translate(-21.33 15.94) rotate(-12.17)"/><rect class="cls-1" x="48.14" y="96.87" width="26.46" height="3.04" transform="translate(-19.32 15.11) rotate(-12.14)"/><rect class="cls-1" x="45.25" y="83.76" width="20.46" height="3.04" transform="translate(-16.67 13.55) rotate(-12.12)"/><rect class="cls-1" x="42.38" y="71.1" width="9.4" height="3.04" transform="translate(-14.21 11.51) rotate(-12.13)"/><path class="cls-1" d="M23.53,120.89A18.38,18.38,0,0,1,22,117.14a31.82,31.82,0,0,1-.93-10.46,67.81,67.81,0,0,1,3-15.36c1.49-4.91,4-9.38,6.41-13.69.52-.92,1-1.84,1.54-2.77,2.81-5.1,4.86-9.53,5.71-14.58.09-.53.15-.9.19-1.26l3,.35c0,.4-.11.82-.17,1.22-1,6-3.53,11.09-6.09,15.74L33.1,79.11c-2.34,4.18-4.76,8.5-6.16,13.09a64.88,64.88,0,0,0-2.83,14.65,28.49,28.49,0,0,0,.82,9.45,14.64,14.64,0,0,0,1.26,3.11Z"/><rect class="cls-1" x="23.15" y="112.28" width="27.7" height="3.04" transform="translate(-23.16 10.36) rotate(-12.17)"/><rect class="cls-1" x="22.29" y="102.45" width="26.44" height="3.04" transform="translate(-21.14 9.84) rotate(-12.18)"/><rect class="cls-1" x="25.25" y="88.07" width="20.46" height="3.04" transform="translate(-18.12 9.51) rotate(-12.19)"/><rect class="cls-1" x="33.2" y="73.08" width="9.39" height="3.04" transform="translate(-14.88 9.67) rotate(-12.17)"/></g></g></svg>