<svg xmlns="http://www.w3.org/2000/svg" xmlns:xlink="http://www.w3.org/1999/xlink" viewBox="0 0 1806.08 1025.11">
	<defs>
		<style>
			.cls-1{isolation:isolate;}.cls-2{mix-blend-mode:saturation;fill:url(#未命名漸層_3);}
		</style>
		<linearGradient id="未命名漸層_3" x1="903.04" x2="903.04" y2="1025.11" gradientUnits="userSpaceOnUse">
			<stop offset="0" stop-color="#29003c" />
			<stop offset="1" stop-color="#7f85e8" />
		</linearGradient>
	</defs>
	<g class="cls-1">
		<g id="圖層_2" data-name="圖層 2">
			<g id="圖層_1-2" data-name="圖層 1">
				<path class="cls-2" d="M1770.58,76.69c-27.37,17.22-78.67,57.8-78.67,57.8-76.75,66.35-40.77,150.14-40.77,150.14,14.61,40.75,88,102.45,88,102.45,39,27.67,54,89.81,54,89.81,13,49.66-20.06,109.86-20.06,109.86-24.22,47.78-81.62,67.54-81.62,67.54-40.89,20.88-117.55,2-117.55,2-96.95-29.11-134,73.66-134,73.66-19.93,45.63-60.86,92.36-60.86,92.36-16,18.8-48.78,36.8-48.78,36.8-36,19.88-106.93-12-106.93-12-75.08-35.72-117.82-31.37-117.82-31.37-67.9.71-96.53,80.62-96.53,80.62-10.87,30.33-30.83,52.5-30.83,52.5-36.42,32.48-90.44,27.63-90.44,27.63-64.78-4.41-90.87-91.29-90.87-91.29C776,827.3,713.37,817,713.37,817c-33.07-11.32-118.6,27.66-118.6,27.66C568.34,859.51,527,864.56,527,864.56c-21.17,4.85-52.13-7.92-52.13-7.92-24.65-8-59.65-50.35-59.65-50.35-17.3-16.8-48.39-85.06-48.39-85.06C358.17,688.16,309,660,309,660c-23.86-15.4-65.25-4.21-65.25-4.21-17.94,4.12-54.5,6.89-54.5,6.89C122.37,665.35,84.63,638,84.63,638c-65.87-47.47-69.31-127.1-69.31-127.1C8,428,102.74,361.15,102.74,361.15c68.67-54.13,67.33-132.94,67.33-132.94,4.58-53.11-77.58-115.5-77.58-115.5C70.92,100.33,19.18,57.53,19.18,57.53,10.25,50.09,4.15,39.22,0,27.34v997.77H1806.08V0C1795.46,60.63,1770.58,76.69,1770.58,76.69Z" />
			</g>
		</g>
	</g>
</svg>
