<svg xmlns="http://www.w3.org/2000/svg" xmlns:xlink="http://www.w3.org/1999/xlink" viewBox="0 0 235.27 86.65"><defs><style>.cls-1{fill:url(#未命名漸層_5);}.cls-2{fill:#fff;}.cls-3{fill:none;stroke-miterlimit:10;stroke:url(#未命名漸層_5-2);}</style><linearGradient id="未命名漸層_5" x1="77.96" y1="111.94" x2="157.34" y2="-25.54" gradientUnits="userSpaceOnUse"><stop offset="0.13" stop-color="#4364de" stop-opacity="0.98"/><stop offset="0.25" stop-color="#4564dd" stop-opacity="0.96"/><stop offset="0.37" stop-color="#4b64db" stop-opacity="0.91"/><stop offset="0.49" stop-color="#5565d7" stop-opacity="0.82"/><stop offset="0.6" stop-color="#6365d1" stop-opacity="0.69"/><stop offset="0.72" stop-color="#7666ca" stop-opacity="0.52"/><stop offset="0.84" stop-color="#8c67c2" stop-opacity="0.32"/><stop offset="0.96" stop-color="#a668b8" stop-opacity="0.09"/><stop offset="1" stop-color="#b068b4" stop-opacity="0"/></linearGradient><linearGradient id="未命名漸層_5-2" x1="74.64" y1="117.79" x2="160.63" y2="-31.15" xlink:href="#未命名漸層_5"/></defs><g id="圖層_2" data-name="圖層 2"><g id="圖層_1-2" data-name="圖層 1"><rect class="cls-1" x="6.07" y="5.68" width="223.15" height="75.02" rx="24.27"/><path class="cls-2" d="M51.83,59.55H48.55l.15-5.77V32.06l-.15-4.58.22-.15,4.51.15h4.14l4.51-.15.22.15L62,30.62v4.9l.14,3.14-.18.18-4.55-.14H51.83Zm7.22-29.73H51.83v2.06h7.22Zm-7.22,4.33v2.24h7.22V34.15Zm2.31,9.42V40.83l4.62.1h9.49l4.54-.1v2.74l-4.54-.11v3.61h.5L73.87,47v2.81l-5.12-.11h-.5v2.92l.14,5.2H65l.14-5.2V49.66H61.54c-.58,4.8-2.6,6.75-7.15,8.19a6.73,6.73,0,0,0-2-2.52c4.22-1.09,5.73-2.2,6.17-5.67h-.26l-5.19.11V47l5.19.11h.44V43.46Zm7.58,3.5h3.46V43.46H61.72ZM69,38.7l-4.58.14-.18-.14.14-3.18V30.65l-.14-3.17.21-.15,4.55.15h4.69l4.51-.15.21.15-.14,4.58V51.61l.11,4.47c0,2.82-.83,3.5-4.58,3.5H72.65a14.68,14.68,0,0,0-1.23-3.35c1.66.14,2.38.18,2.92.18s.83-.11.83-.69v-17Zm6.13-6.82V29.82H67.45v2.06Zm-7.72,4.47h7.72v-2.2H67.45Z"/><path class="cls-2" d="M87,50.93l-3-.76c1-4.66,1.81-8.77,2.38-12.45L83,37.83v-3l3.83.11c.21-1.41.36-2.74.5-4,.18-1.84.33-2.71.33-3.43,0-.07,0-.07,0-.9,3.79.68,4.51.9,4.51,1.55,0,.43-.25.65-1.44.86-.29,2.17-.54,4.12-.83,6H91.4L95,34.8l.19.18c-.26,8.3-.83,12.19-2.1,15.37a26.09,26.09,0,0,1,3.61,3.39L94.25,55.9c-1-1.15-1.77-2-2.56-2.81A18.73,18.73,0,0,1,84.87,59a13.79,13.79,0,0,0-1.62-2.56,14.78,14.78,0,0,0,6-5.37A19.15,19.15,0,0,0,87.14,50Zm2.49-13.24c-.54,3.24-1.12,6.45-1.77,9.66a21.82,21.82,0,0,1,2.67,1.27c.94-2.49,1.37-5.34,1.59-10.93Zm24,4.43c-.39-.93-.79-1.84-1.22-2.7-4.76.72-9.24,1.19-13.93,1.51-.14.8-.39,1.12-.83,1.12s-.9-.61-1.87-4.47c1.22.07,2.27.07,3.68,0h.43a79.35,79.35,0,0,0,2.45-8.7,20.62,20.62,0,0,0,.36-2.63c4.26.9,4.66,1.19,4.66,1.77,0,.39-.4.61-1.34.68-.79,2.81-1.66,5.7-2.78,8.69,2.57-.14,5.09-.36,7.62-.64a32.43,32.43,0,0,0-2.6-3.58l2.56-1.69a35.46,35.46,0,0,1,5.77,8.66ZM101.5,57v2.06H98.14l.15-5.67V48.33l-.15-4.55.18-.18,4.55.15h6.46l4.54-.15.18.18-.14,4.55v4.9l.14,5.6h-3.39V57Zm9.16-10.39H101.5v7.54h9.16Z"/><path class="cls-2" d="M123.1,29.35a19.26,19.26,0,0,0-.25-3.24c3.75.11,4.5.29,4.5.86,0,.36-.36.58-1.15.76v5.95l3.21-.07V36.5l-3.21-.11v5.52c1.12-.36,2.34-.76,3.64-1.23a19,19,0,0,0,0,2.82c-1.3.5-2.49.93-3.68,1.37v4.9l.14,5.27c0,3.17-.75,4-4.25,4h-1.37a11.55,11.55,0,0,0-1.55-3.5,31.32,31.32,0,0,0,3.17.18c.65,0,.76,0,.76-.65V46c-.69.21-1.37.47-2.06.68-.25.87-.5,1.16-.86,1.16-.54,0-.72-.58-1.73-3.9a19.19,19.19,0,0,0,2.77-.5l1.88-.54V36.39h-.83L119,36.5V33.61l3.32.07h.83Zm12.12,17.86-5.81.11V44.54l5.81.11h3V43.1a9.77,9.77,0,0,0-.33-2.64c3.83.33,4.51.44,4.51,1.09,0,.32-.32.5-1.12.72v2.38h4.8l5.77-.11v2.78l-5.77-.11h-3.79a25.69,25.69,0,0,0,10.9,6.71A10.73,10.73,0,0,0,151,56.59a26.9,26.9,0,0,1-9.74-6.82l.25,9.92H138.1l.26-9.56a20.26,20.26,0,0,1-8.73,6.68,11.35,11.35,0,0,0-2.24-2.35,18.22,18.22,0,0,0,9.67-7.25Zm4.62-14.68c0,.47-.15.58-.94.79-.36,5-1.7,7.07-6.75,8.62a8.89,8.89,0,0,0-2-2.45,10.71,10.71,0,0,0,4-1.51c1.12-.83,1.62-2.13,1.66-4.69a10.5,10.5,0,0,0-.18-2.06C139.47,31.74,139.84,32,139.84,32.53Zm4.65,4.83c0,.47,0,.54,1.48.54s1.58-.11,1.73-.43a6.4,6.4,0,0,0,.22-2.31,9.74,9.74,0,0,0,3,1.45c-.21,3.57-.93,4.14-4.65,4.14-4.29,0-4.8-.65-4.8-3.5V30.62h-7.93v4.8h-3.14l.18-4.19L130.38,28l.19-.18,4.65.14H146.8l4.65-.14.18.18-.14,3.21.18,3.82h-3.18V30.62h-4Z"/><path class="cls-2" d="M168,53.74c0,.4-.15.54-.65.54a8,8,0,0,1-1.08-.11,39.32,39.32,0,0,1-8.91,4.58,7.39,7.39,0,0,0-2.24-2.45,28.4,28.4,0,0,0,8.33-3.75A6.63,6.63,0,0,0,165,51.07C167.82,52.91,168,53.16,168,53.74Zm2.05-3.46c-3.93.18-7.64.32-10.75.39-.25.8-.5,1-.86,1-.76,0-.83-.36-2-4.33a35.57,35.57,0,0,0,3.9.22c2.78,0,5.45,0,8,0a6.15,6.15,0,0,0,.5-.54,63.8,63.8,0,0,0-7.18-4.62l1.88-2.16c.79.47,1.59.9,2.35,1.37a27.28,27.28,0,0,0,2.34-3.14,6,6,0,0,0,.72-1.41h-9.49V42.3h-3.28l.18-4.36-.14-3.57.18-.15,5.63.15h8.15V32h-6.93l-5.81.15v-3l5.81.15h6.93A16.21,16.21,0,0,0,170,26c3.93.11,4.58.32,4.58.87,0,.36-.36.57-1.12.79v1.59h6.82L186,29.1v3L180.23,32h-6.82v2.42h8.26l5.63-.15.18.15-.14,3.57.18,4.36h-3.25V37.07H169.55c2.64,1.37,3,1.66,3,2.13,0,.29-.29.62-1.48.58-.83,1-1.69,2.09-2.85,3.32.91.57,1.81,1.19,2.67,1.84a47.56,47.56,0,0,0,3.54-4.29,6.58,6.58,0,0,0,1-1.84c3.24,1.87,3.5,2.12,3.5,2.63s-.36.61-1.52.58a71.26,71.26,0,0,1-5,5.41c2.49-.08,5-.18,7.51-.33A29.59,29.59,0,0,0,177.34,45l2.49-1.7a47.45,47.45,0,0,1,6.86,6.46l-2.64,1.91c-.57-.72-1.15-1.44-1.73-2.13-3,.22-6,.4-9,.58v3.72l.11,5.81H170l.14-5.81Zm6.86.65a78.21,78.21,0,0,1,10.39,5.37l-2.28,2.42a62.86,62.86,0,0,0-10.31-5.67Z"/><rect class="cls-3" x="0.5" y="0.5" width="234.27" height="85.65" rx="27.7"/></g></g></svg>