<svg xmlns="http://www.w3.org/2000/svg" viewBox="0 0 283.96 315.55"><defs><style>.cls-1{fill:#fff;}.cls-2,.cls-5{fill:none;}.cls-2{stroke:#f8fcff;stroke-miterlimit:10;}.cls-3{fill:#ced30d;}.cls-4{fill:#3b93ea;}</style></defs><g id="圖層_2" data-name="圖層 2"><g id="圖層_1-2" data-name="圖層 1"><path class="cls-1" d="M77.23,306.06H73.87q-11.39,0-11.39-11.18v-6.62q0-11.14,11.39-11.18h3.36q11.25,0,11.25,11.18v6.62Q88.48,306,77.23,306.06Zm3.63-11.7v-5.65a4.34,4.34,0,0,0-.76-3c-.55-.67-1.64-1-3.25-1H74.29c-1.62,0-2.7.33-3.26,1a4.39,4.39,0,0,0-.76,3v5.65a4.44,4.44,0,0,0,.76,3c.56.67,1.64,1,3.26,1h2.56c1.61,0,2.7-.34,3.25-1a4.39,4.39,0,0,0,.76-3v0Z"/><path class="cls-1" d="M110.88,306a5.44,5.44,0,0,1-3.74-1.18,9.63,9.63,0,0,1-2.59-4.43l-4-12.12q-.15-.56-.45-.48c-.21,0-.31.19-.31.52v17.52H92.39V282.41c0-2.12.47-3.58,1.39-4.36A6.21,6.21,0,0,1,98,277a6,6,0,0,1,4.15,1.28,9.9,9.9,0,0,1,2.57,4.43l4,11.56c.09.37.23.53.41.49s.21-.13.21-.45V277.18h7.34v23.13C116.72,304.14,114.81,306,110.88,306Z"/><path class="cls-1" d="M143.78,305.75H130.27c-3.51,0-6-.81-7.37-2.36a9.09,9.09,0,0,1-2.05-6.51V286.74a10.57,10.57,0,0,1,1.87-7c1.37-1.75,3.94-2.65,7.73-2.7h13.29v7.62H131.21a3.1,3.1,0,0,0-2.15.52,2.91,2.91,0,0,0-.62,2.18V288h13.85v6.37H128.44v.66a3.73,3.73,0,0,0,.59,2.63,2.86,2.86,0,0,0,2.21.55h12.54v7.52Z"/><path class="cls-1" d="M184.53,305.71h-7.62v-6a4.56,4.56,0,0,0-1.38-3.46,5.52,5.52,0,0,0-3.88-1.35h-4.92v10.8h-7.62V277.18h7.62v10.39H171c3.4-.14,5.15-1.67,5.27-4.61v-5.78h7.61v6.27c-.09,3.92-1.38,6.57-3.87,7.93a8.59,8.59,0,0,1,4.46,7.82v6.48Z"/><path class="cls-1" d="M206.24,305.75v-5.82h-10v5.82h-7.61V288.64c-.09-3.55.64-6.33,2.21-8.34s4.55-3,8.94-3.05h2.9c4.39.05,7.37,1.06,8.94,3.05s2.31,4.79,2.21,8.34v17.11Zm0-12.74v-4.37a4.37,4.37,0,0,0-.84-3.11,3.58,3.58,0,0,0-2.7-.8h-2.9a3.58,3.58,0,0,0-2.7.8,4.37,4.37,0,0,0-.84,3.11V293h10v0Z"/><path class="cls-1" d="M225.42,298.34h-5.68l-1.32-15.17v-8h8.31v8Zm1.21,8.79h-8.07v-7.06h8.07Z"/><polygon class="cls-2" points="59.26 270.02 243.55 270.02 231.45 315.05 47.16 315.05 59.26 270.02"/><rect class="cls-3" x="257.41" y="76.18" width="26.55" height="27.79"/><path class="cls-4" d="M242.78,159.15a66.71,66.71,0,0,1-28.24-23l-25.63,15.53c10.3,12,24.65,20.22,40.18,24.67,0,0,41.34,2.56,47.64,13.25C276.73,189.56,269.4,168.73,242.78,159.15Z"/><path class="cls-4" d="M31.58,230.87v28.57s48.35,4.42,84.82-36.19L90.37,206S71.58,230.87,31.58,230.87Z"/><rect class="cls-3" x="0.15" y="230.87" width="26.65" height="28.71"/><circle class="cls-5" cx="233.56" cy="211.32" r="21.01"/><path class="cls-1" d="M234.53,24.25,217.08.16c-58,40.62-104.86,3.3-107-.16L99.11,24.53C148.73,69.78,227.08,36.36,234.53,24.25Z"/><path class="cls-1" d="M233.56,162.16A48.41,48.41,0,1,0,282,210.57,48.41,48.41,0,0,0,233.56,162.16Zm0,70.17a21,21,0,1,1,21-21A21,21,0,0,1,233.56,232.33Z"/><path class="cls-1" d="M144.22,162.83a115.21,115.21,0,0,0,.94-14.1l.15-44.92h25.43c.61,14.12,4.08,31.42,15.41,44.69l26.16-15.37c-4.39-7.37-8.13-17.09-10-29.32h51.33V76.34h-197V55.16c21.2-12.31,30.53-35.75,29.58-39.79L64.88,1.26c-13.1,50-61.47,32-63.21,29.35l0,26.83C13.17,61.8,23.4,63.2,32.43,62.57V76.34H1.14v27.47H32.43v39.58c-13.81.25-26.87-4.2-32.43-5.55l0,26.83c70.65,23.17,96.51-35.16,95-41.76L73.69,108.8c-3.57,13.6-9.75,22.16-17.1,27.37V103.81h60V149.6a68.93,68.93,0,0,1-1.91,13.23H104c-23.43,0-45.12,16.88-45.12,16.88L82.6,195.49c3.65-3.3,12.66-4.27,20.14-4.47a85.26,85.26,0,0,1-9.9,12.58l26,16.91s10.24-10.52,18-29.35l12.33,0-.82,29.39c-.84,12.08-14.79,10.81-14.79,10.81H122.64V259l28.53-.19c9.8-.19,17.28-8.82,17.28-8.82,7.33-8.73,7.05-24.74,7.05-24.74V162.83Z"/></g></g></svg>